<?xml version="1.0" encoding="UTF-8"?>
<svg id="Layer_1" data-name="Layer 1" xmlns="http://www.w3.org/2000/svg" viewBox="0 0 764.85 240.13">
  <defs>
    <style>
      .cls-1, .cls-2 {
        fill: #224293;
      }

      .cls-2 {
        font-family: Avenir-Medium, Avenir;
        font-size: 108px;
        font-weight: 500;
        letter-spacing: .01em;
      }

      .cls-3 {
        fill: #ffce3e;
      }
    </style>
  </defs>
  <g>
    <path class="cls-1" d="M44.95,180.69l-.02-3.28c15.86-.48,19.62-1.87,19.62-20.66v-75.43c0-20.1-3.5-20.43-19.62-21.7v-3.28s49.96,0,49.96,0v3.28c-16.24,1.17-19.62,1.69-19.62,21.7v75.43c0,18.57,4.1,20.08,19.6,20.67l.02,3.28h-49.94Z"/>
    <path class="cls-1" d="M182.64,148.65c-12.67-17.87-13.31-23.25-27.49-23.25h-12.69v31.35c0,16.9,2.9,19.17,19.62,20.66v3.28h-49.96v-3.28c16.85-1.57,19.62-3.82,19.62-20.66v-75.81c0-17.9-3.27-20.56-19.62-21.32v-3.28h49.96c13.87,0,42.06,4.15,42.06,32.19,0,18.68-8.35,30.36-22.41,36.44-.73,11.21,6.08,20.17,12.08,28.51,3.45,4.81,20.24,25.96,47.21,38.32-27.44-.22-51.94-34.08-58.37-43.16ZM159.83,121.01c22.83,0,31.4-14.98,31.4-30.16,0-24.04-19.11-30.31-34.6-30.31-13.68,0-14.17-.8-14.17,4.14v56.33h17.37Z"/>
  </g>
  <path class="cls-3" d="M190.46,24.31C165.47.45,120.22-8.05,78.08,8.83,44.06,22.47,6.8,60.54,0,109.81,15.35,60.93,47.75,37.05,85.83,20.94c48.33-20.45,87.37-7.12,104.63,3.37Z"/>
  <g>
    <path class="cls-3" d="M207.47,163.13l5.48,5.48c11.26-15.85,19.63-34.71,22.52-55.6-6.53,20.8-16.16,37.05-27.99,50.13Z"/>
    <path class="cls-3" d="M149.63,201.86c-48.33,20.45-87.37,7.12-104.63-3.37,24.99,23.86,70.24,32.36,112.38,15.48,16.14-6.47,33.01-18.45,47.01-34.51l-6.68-6.68c-14.06,12.49-30.47,21.62-48.09,29.07Z"/>
  </g>
  <text class="cls-2" transform="translate(335.94 102.96)"><tspan x="0" y="0">Izabela</tspan><tspan x="-77.71" y="93">Romańska</tspan></text>
</svg>