<?xml version="1.0" encoding="UTF-8"?>
<svg id="Layer_1" data-name="Layer 1" xmlns="http://www.w3.org/2000/svg" viewBox="0 0 682.42 277">
  <defs>
    <style>
      .cls-1 {
        letter-spacing: -.02em;
      }

      .cls-1, .cls-2, .cls-3, .cls-4 {
        isolation: isolate;
      }

      .cls-1, .cls-2, .cls-4 {
        font-family: Montserrat-Medium, Montserrat;
        font-size: 36px;
        font-weight: 500;
      }

      .cls-1, .cls-2, .cls-4, .cls-5 {
        fill: #efdd10;
      }

      .cls-2 {
        letter-spacing: -.02em;
      }
    </style>
  </defs>
  <path class="cls-5" d="M0,119.85C36.51-3.91,162.05-24.39,236.84,24.58,169.17,11.22,74.79-4.8,0,119.85Z"/>
  <path class="cls-5" d="M288.48,157.15c-36.51,123.76-162.05,144.24-236.84,95.27,67.67,13.36,162.05,29.38,236.84-95.27Z"/>
  <g>
    <path d="M116.78,224.57c0,2.09-.53,3.14-1.6,3.14-4.47,0-9.77-.22-15.9-.67-5.87-.45-10.83-.67-14.9-.67s-9.03.22-14.9.67c-6.2.45-11.57.67-16.1.67-1.07,0-1.6-1.05-1.6-3.14,0-1.87.53-2.87,1.6-3.02,8.07-1.05,13.55-2.73,16.45-5.04,2.9-2.32,4.35-6.95,4.35-13.9v-105.49c0-5.23-.58-8.91-1.75-11.04-1.17-2.13-3.22-3.81-6.15-5.05-2.93-1.23-7.23-2.22-12.9-2.97-1.07,0-1.6-1.03-1.6-3.08s.53-3.08,1.6-3.08c4.53,0,9.9.22,16.1.67,5.87.45,10.83.67,14.9.67s9.03-.22,14.9-.67c6.13-.45,11.43-.67,15.9-.67,1.07,0,1.6,1.03,1.6,3.08s-.53,3.08-1.6,3.08c-5.6.75-9.87,1.74-12.8,2.97s-4.97,2.9-6.1,4.99-1.7,5.79-1.7,11.1v105.49c0,5.16.57,8.8,1.7,10.93,1.13,2.13,3.15,3.81,6.05,5.04s7.15,2.22,12.75,2.97c1.13.15,1.7,1.16,1.7,3.02Z"/>
    <path d="M291.05,235.23c0,2.09-.53,3.14-1.6,3.14-2.47,0-29.19-11.82-55.97-10.66l-30.3-55.26c-4.27-7.65-7.72-12.56-10.35-14.74-2.63-2.17-7.92-3.26-15.85-3.26v48.17c0,5.15.58,8.79,1.75,10.92s3.23,3.81,6.2,5.04,7.22,2.22,12.75,2.97c1.13.15,1.7,1.16,1.7,3.02,0,2.09-.53,3.14-1.6,3.14-4.47,0-9.8-.22-16-.67-5.93-.45-10.93-.67-15-.67s-9.03.22-14.9.67c-6.13.45-11.43.67-15.9.67-1.07,0-1.6-1.05-1.6-3.14,0-1.87.53-2.87,1.6-3.02,5.53-.75,9.77-1.74,12.7-2.97s4.98-2.89,6.15-4.99c1.17-2.09,1.75-5.75,1.75-10.99v-105.49c0-5.16-.55-8.8-1.65-10.93-1.1-2.13-3.12-3.83-6.05-5.1-2.93-1.27-7.23-2.28-12.9-3.03-1.07,0-1.6-1.03-1.6-3.08s.53-3.08,1.6-3.08c4.47,0,9.77.22,15.9.67,5.87.45,10.83.67,14.9.67s9.07-.22,15-.67c6.2-.45,11.53-.67,16-.67,14.87,0,26.37,3.48,34.5,10.45,8.13,6.97,12.2,16.76,12.2,29.37,0,7.96-2.69,15.36-8.06,22.18-5.38,6.82-12.64,12.08-21.8,15.76l24.33,44.38c15.76,24.56,44.02,37.29,50.7,38.18.93.15,1.4,1.16,1.4,3.02h0ZM222.48,112.21c0-21.88-8.5-32.82-25.5-32.82-5.6,0-9.85.51-12.75,1.52-2.9,1.01-4.83,2.6-5.8,4.78-.97,2.17-1.45,5.99-1.45,11.46v50.01c3.87.6,8.73.9,14.6.9,10.73,0,18.57-2.85,23.5-8.54,4.93-5.69,7.4-14.8,7.4-27.31Z"/>
  </g>
  <g class="cls-3">
    <g class="cls-3">
      <text class="cls-1" transform="translate(319.63 238.36)"><tspan x="0" y="0">k</tspan></text>
    </g>
    <g class="cls-3">
      <text class="cls-4" transform="translate(341.16 238.36)"><tspan x="0" y="0">sięg</tspan></text>
    </g>
    <g class="cls-3">
      <text class="cls-1" transform="translate(416.11 238.36)"><tspan x="0" y="0">o</tspan></text>
    </g>
    <g class="cls-3">
      <text class="cls-2" transform="translate(438.43 238.36)"><tspan x="0" y="0">w</tspan></text>
    </g>
    <g class="cls-3">
      <text class="cls-4" transform="translate(470 238.36)"><tspan x="0" y="0">a dla</tspan></text>
    </g>
    <g class="cls-3">
      <text class="cls-4" transform="translate(567.02 238.36)"><tspan x="0" y="0">c</tspan></text>
    </g>
    <g class="cls-3">
      <text class="cls-4" transform="translate(587.32 238.36)"><tspan x="0" y="0">iebie</tspan></text>
    </g>
  </g>
  <g>
    <path d="M329.58,67.41v57.96h-7.48v-57.96h7.48Z"/>
    <path d="M338.61,120.98l18.83-24.51c1.81-2.24,3.53-4.21,5.42-6.45v-.17h-22.53v-6.11h31.73l-.09,4.73-18.58,24.17c-1.72,2.32-3.44,4.39-5.33,6.54v.17h24.34v6.02h-33.8v-4.39h0Z"/>
    <path d="M403.19,125.37l-.6-5.25h-.26c-2.32,3.27-6.79,6.19-12.73,6.19-8.43,0-12.73-5.93-12.73-11.95,0-10.06,8.94-15.57,25.03-15.48v-.86c0-3.44-.95-9.63-9.46-9.63-3.87,0-7.91,1.2-10.84,3.1l-1.72-4.99c3.44-2.24,8.43-3.7,13.67-3.7,12.73,0,15.82,8.69,15.82,17.03v15.57c0,3.61.17,7.14.69,9.98h-6.88.01ZM402.07,104.13c-8.26-.17-17.63,1.29-17.63,9.37,0,4.9,3.27,7.22,7.14,7.22,5.42,0,8.86-3.44,10.06-6.97.26-.77.43-1.63.43-2.41v-7.22h0Z"/>
    <path d="M421.25,125.37c.17-2.84.34-7.05.34-10.75v-50.31h7.48v26.14h.17c2.67-4.64,7.48-7.65,14.19-7.65,10.32,0,17.63,8.6,17.54,21.24,0,14.88-9.37,22.27-18.66,22.27-6.02,0-10.84-2.32-13.93-7.83h-.26l-.34,6.88h-6.54,0ZM429.08,108.68c0,.95.17,1.89.34,2.75,1.46,5.25,5.85,8.86,11.35,8.86,7.91,0,12.64-6.45,12.64-16,0-8.34-4.3-15.48-12.38-15.48-5.16,0-9.98,3.53-11.52,9.29-.17.86-.43,1.89-.43,3.1v7.48h0Z"/>
    <path d="M474.74,105.93c.17,10.23,6.71,14.45,14.28,14.45,5.42,0,8.69-.95,11.52-2.15l1.29,5.42c-2.67,1.2-7.22,2.58-13.85,2.58-12.81,0-20.47-8.43-20.47-20.98s7.4-22.45,19.52-22.45c13.59,0,17.2,11.95,17.2,19.61,0,1.55-.17,2.75-.26,3.53h-29.24.01ZM496.93,100.51c.09-4.82-1.98-12.3-10.49-12.3-7.65,0-11.01,7.05-11.61,12.3h22.1,0Z"/>
    <path d="M513.61,64.31h7.57v61.06h-7.57v-61.06Z"/>
    <path d="M556.96,125.37l-.6-5.25h-.26c-2.32,3.27-6.79,6.19-12.73,6.19-8.43,0-12.73-5.93-12.73-11.95,0-10.06,8.94-15.57,25.03-15.48v-.86c0-3.44-.95-9.63-9.46-9.63-3.87,0-7.91,1.2-10.83,3.1l-1.72-4.99c3.44-2.24,8.43-3.7,13.67-3.7,12.73,0,15.82,8.69,15.82,17.03v15.57c0,3.61.17,7.14.69,9.98h-6.88ZM555.84,104.13c-8.26-.17-17.63,1.29-17.63,9.37,0,4.9,3.27,7.22,7.14,7.22,5.42,0,8.86-3.44,10.06-6.97.26-.77.43-1.63.43-2.41v-7.22h0Z"/>
    <path d="M322.1,140.18c3.78-.77,9.2-1.2,14.36-1.2,8,0,13.16,1.46,16.77,4.73,2.92,2.58,4.56,6.54,4.56,11.01,0,7.65-4.82,12.73-10.92,14.79v.26c4.47,1.55,7.14,5.68,8.51,11.7,1.89,8.08,3.27,13.67,4.47,15.91h-7.74c-.95-1.63-2.24-6.62-3.87-13.85-1.72-8-4.82-11.01-11.61-11.27h-7.05v25.11h-7.48v-57.19h0ZM329.58,166.58h7.65c8,0,13.07-4.39,13.07-11.01,0-7.48-5.42-10.75-13.33-10.83-3.61,0-6.19.34-7.4.69v21.16h0Z"/>
    <path d="M406.12,176.21c0,15.39-10.66,22.1-20.73,22.1-11.27,0-19.95-8.26-19.95-21.41,0-13.93,9.12-22.1,20.64-22.1s20.04,8.69,20.04,21.41h0ZM373.09,176.64c0,9.12,5.25,16,12.64,16s12.64-6.79,12.64-16.17c0-7.05-3.53-16-12.47-16s-12.81,8.26-12.81,16.17h0Z"/>
    <path d="M415.66,167.01c0-4.3-.09-7.83-.34-11.27h6.62l.34,6.71h.26c2.32-3.96,6.19-7.65,13.07-7.65,5.68,0,9.98,3.44,11.78,8.34h.17c1.29-2.32,2.92-4.13,4.64-5.42,2.49-1.89,5.25-2.92,9.2-2.92,5.5,0,13.67,3.61,13.67,18.06v24.51h-7.4v-23.56c0-8-2.92-12.81-9.03-12.81-4.3,0-7.65,3.18-8.94,6.88-.34,1.03-.6,2.41-.6,3.78v25.71h-7.4v-24.94c0-6.62-2.92-11.44-8.69-11.44-4.73,0-8.17,3.78-9.37,7.57-.43,1.12-.6,2.41-.6,3.7v25.11h-7.4v-30.36h.02Z"/>
    <path d="M510.43,197.37l-.6-5.25h-.26c-2.32,3.27-6.79,6.19-12.73,6.19-8.43,0-12.73-5.93-12.73-11.95,0-10.06,8.94-15.57,25.03-15.48v-.86c0-3.44-.95-9.63-9.46-9.63-3.87,0-7.91,1.2-10.84,3.1l-1.72-4.99c3.44-2.24,8.43-3.7,13.67-3.7,12.73,0,15.82,8.69,15.82,17.03v15.57c0,3.61.17,7.14.69,9.98h-6.88.01ZM509.31,176.13c-8.26-.17-17.63,1.29-17.63,9.37,0,4.9,3.27,7.22,7.14,7.22,5.42,0,8.86-3.44,10.06-6.97.26-.77.43-1.63.43-2.41v-7.22h0Z"/>
    <path d="M528.84,167.01c0-4.3-.09-7.83-.34-11.27h6.71l.43,6.88h.17c2.06-3.96,6.88-7.83,13.76-7.83,5.76,0,14.71,3.44,14.71,17.72v24.85h-7.57v-23.99c0-6.71-2.49-12.3-9.63-12.3-4.99,0-8.86,3.53-10.15,7.74-.34.95-.52,2.24-.52,3.53v25.03h-7.57v-30.36h0ZM558.25,137.77l-10.49,12.3h-5.42l7.57-12.3h8.34,0Z"/>
    <path d="M575.53,189.63c2.24,1.46,6.19,3.01,9.98,3.01,5.5,0,8.08-2.75,8.08-6.19,0-3.61-2.15-5.59-7.74-7.65-7.48-2.67-11.01-6.79-11.01-11.78,0-6.71,5.42-12.21,14.36-12.21,4.21,0,7.91,1.2,10.23,2.58l-1.89,5.5c-1.63-1.03-4.64-2.41-8.51-2.41-4.47,0-6.97,2.58-6.97,5.68,0,3.44,2.49,4.99,7.91,7.05,7.22,2.75,10.92,6.36,10.92,12.56,0,7.31-5.68,12.47-15.57,12.47-4.56,0-8.77-1.12-11.7-2.84l1.89-5.76h.02Z"/>
    <path d="M618.1,174.84h.17c1.03-1.46,2.49-3.27,3.7-4.73l12.21-14.36h9.12l-16.08,17.11,18.32,24.51h-9.2l-14.36-19.95-3.87,4.3v15.65h-7.48v-61.06h7.48v38.53h-.01Z"/>
    <path d="M675.55,197.37l-.6-5.25h-.26c-2.32,3.27-6.79,6.19-12.73,6.19-8.43,0-12.73-5.93-12.73-11.95,0-10.06,8.94-15.57,25.03-15.48v-.86c0-3.44-.95-9.63-9.46-9.63-3.87,0-7.91,1.2-10.84,3.1l-1.72-4.99c3.44-2.24,8.43-3.7,13.67-3.7,12.73,0,15.82,8.69,15.82,17.03v15.57c0,3.61.17,7.14.69,9.98h-6.88,0ZM674.43,176.13c-8.26-.17-17.63,1.29-17.63,9.37,0,4.9,3.27,7.22,7.14,7.22,5.42,0,8.86-3.44,10.06-6.97.26-.77.43-1.63.43-2.41v-7.22h0Z"/>
  </g>
</svg>