<?xml version="1.0" encoding="UTF-8"?>
<!DOCTYPE svg PUBLIC "-//W3C//DTD SVG 1.1//EN" "http://www.w3.org/Graphics/SVG/1.1/DTD/svg11.dtd">
<!-- Creator: CorelDRAW 2021 (64-Bit) -->
<svg xmlns="http://www.w3.org/2000/svg" xml:space="preserve" width="297mm" height="210mm" version="1.1" style="shape-rendering:geometricPrecision; text-rendering:geometricPrecision; image-rendering:optimizeQuality; fill-rule:evenodd; clip-rule:evenodd"
viewBox="0 0 29700 21000"
 xmlns:xlink="http://www.w3.org/1999/xlink"
 xmlns:xodm="http://www.corel.com/coreldraw/odm/2003">
 <defs>
  <style type="text/css">
   <![CDATA[
    .fil0 {fill:#FFDC0A}
    .fil1 {fill:#2B2A29;fill-rule:nonzero}
    .fil2 {fill:#FFDC0A;fill-rule:nonzero}
   ]]>
  </style>
 </defs>
 <g id="Слой_x0020_1">
  <metadata id="CorelCorpID_0Corel-Layer"/>
  <g id="_1959234081408">
   <path class="fil0" d="M1266.64 10179.06c2275.19,-5057.36 5886.72,-4949.31 9416.67,-4125.53 -5126.39,-2672.26 -8755.88,718.14 -9416.67,4125.53z"/>
   <path class="fil0" d="M12669.75 10835.21c-2275.2,5057.35 -5886.72,4949.31 -9416.67,4125.53 5126.39,2672.26 8755.87,-718.14 9416.67,-4125.53z"/>
   <path class="fil1" d="M5951.42 13660.98l0 166.07 -2620.25 0 0 -166.07 216.82 0c253.71,0 436.71,-73.81 552.04,-219.89 72.26,-96.88 107.64,-327.55 107.64,-693.51l0 -3958.07c0,-309.08 -19.99,-513.58 -58.45,-612.01 -30.74,-75.33 -92.26,-139.92 -186.05,-193.74 -132.25,-72.28 -270.64,-107.64 -415.18,-107.64l-216.82 0 0 -166.08 2620.25 0 0 166.08 -219.9 0c-249.09,0 -430.55,73.81 -544.34,219.89 -75.36,96.87 -112.26,327.53 -112.26,693.5l0 3958.07c0,309.08 19.99,513.6 58.43,612 29.22,75.36 92.27,139.94 189.15,193.75 129.17,72.28 264.49,107.65 409.02,107.65l219.9 0zm6803.34 516.72l-66.92 93.14 -1912.64 -443.79 -2077.44 -2860.14c-149.15,6.15 -270.64,9.23 -364.43,9.23 -38.45,0 -79.97,-1.54 -123.02,-3.08 -44.6,-1.54 -89.19,-3.07 -136.86,-6.15l0 1780.67c0,384.43 41.53,622.77 126.1,715.04 113.8,132.24 284.48,198.36 512.05,198.36l238.36 0 0 166.07 -2620.26 0 0 -166.07 229.11 0c258.34,0 442.86,-84.58 553.57,-252.19 63.05,-92.26 93.81,-313.7 93.81,-661.21l0 -3958.07c0,-384.42 -41.52,-622.76 -126.09,-715.03 -116.87,-132.24 -290.63,-198.36 -521.29,-198.36l-229.11 0 0 -166.08 2226.61 0c650.44,0 1128.66,47.67 1436.2,141.47 309.09,95.35 570.49,270.65 784.23,524.36 215.29,253.73 322.93,556.66 322.93,908.79 0,376.74 -123.03,702.73 -367.52,979.51 -246.02,276.8 -624.3,472.09 -1139.44,587.41l1265.54 1751.46c289.09,402.87 561.9,638.89 744.25,804.21 377.35,342.13 714.89,563.69 1152.26,770.45zm-4681.31 -3496.81c56.9,0 106.11,0 147.63,1.54 41.52,1.54 75.34,3.08 101.48,3.08 576.65,0 1011.82,-126.09 1303.99,-378.28 293.69,-253.71 439.78,-575.11 439.78,-965.68 0,-381.34 -118.41,-691.96 -353.67,-931.84 -236.81,-238.36 -550.5,-358.29 -939.54,-358.29 -172.24,0 -405.96,27.68 -699.67,83.03l0 2546.44z"/>
   <path class="fil2" d="M14295.17 14269.89l0 -1025.17 142.09 0 0 583.94 335.85 -301.86 183.5 0 -319.68 276.08 352 467.01 -174.91 0 -278.26 -379.66 -98.5 84.96 0 294.7 -142.09 0zm750.27 -221.92l140.46 -20.05c7.82,49.88 29.87,88.05 65.94,114.79 36.05,26.48 86.65,39.84 151.22,39.84 65.39,0 113.82,-11.69 145.6,-35.31 31.49,-23.39 47.35,-51.07 47.35,-82.81 0,-28.4 -14.27,-50.82 -42.51,-67.05 -19.92,-11.22 -68.36,-25.3 -145.32,-42.72 -103.87,-23.15 -175.72,-43.19 -216.09,-60.14 -40.09,-17.18 -70.5,-40.57 -91.21,-70.63 -20.74,-29.83 -31.22,-63 -31.22,-99.27 0,-33.16 8.61,-63.72 25.55,-91.88 17.22,-28.15 40.37,-51.54 69.71,-70.14 22.07,-14.33 52.2,-26.5 90.13,-36.53 38.22,-10.01 78.86,-15.04 122.45,-15.04 65.67,0 123.25,8.36 172.77,25.3 49.78,16.71 86.38,39.63 110.07,68.26 23.39,28.88 39.81,67.28 48.7,115.5l-138.87 17.18c-6.17,-38.66 -24.49,-68.96 -54.62,-90.68 -30.15,-21.71 -72.65,-32.45 -127.83,-32.45 -64.85,0 -111.39,9.54 -139.11,28.63 -27.73,19.09 -41.72,41.52 -41.72,67.05 0,16.24 5.67,31.03 17.22,44.16 11.58,13.36 29.61,24.57 54.36,33.4 14.28,4.76 55.71,15.5 125.14,32.21 100.1,23.63 170.06,43.19 209.89,58.23 39.84,15.03 71.06,37.23 93.65,65.86 22.86,28.87 34.18,64.67 34.18,107.62 0,41.77 -13.74,81.14 -41.45,118.13 -27.7,36.98 -67.55,65.63 -119.48,85.9 -52.2,20.3 -111.14,30.31 -176.79,30.31 -108.72,0 -191.88,-20.04 -248.92,-59.9 -57.06,-40.08 -93.39,-99.27 -109.25,-177.77zm863.81 -660.06l0 -143.19 142.09 0 0 143.19 -142.09 0zm0 881.98l0 -743.09 142.09 0 0 743.09 -142.09 0zm930.27 -240.54l146.94 17.19c-22.88,75.64 -65.67,134.59 -128.1,176.34 -62.44,41.77 -142.09,62.76 -239.22,62.76 -122.17,0 -219.05,-33.4 -290.63,-100.22 -71.59,-66.57 -107.37,-160.36 -107.37,-280.87 0,-124.56 36.05,-221.45 108.43,-290.17 72.4,-68.98 166.3,-103.35 281.75,-103.35 111.68,0 202.92,33.66 273.69,101.2 70.76,67.52 106.29,162.5 106.29,284.91 0,7.41 -0.28,18.62 -0.8,33.42l-624.05 0c5.38,81.38 31.22,143.9 78.03,187.09 46.56,43.19 104.95,64.9 174.66,64.9 51.93,0 96.34,-12.16 132.93,-36.51 36.85,-24.34 65.92,-63.23 87.45,-116.69zm-465 -201.88l466.62 0c-6.2,-62.52 -24.21,-109.29 -53.55,-140.56 -44.95,-48.43 -103.6,-72.77 -175.45,-72.77 -65.13,0 -119.75,19.33 -164.16,57.99 -44.14,38.66 -68.62,90.44 -73.46,155.34zm367.59 442.42c-30.15,16.24 -53.28,36.52 -69.97,60.38 -16.41,24.09 -24.74,48.45 -24.74,73.02 0,19.56 5.9,36.27 18.01,49.63 12.1,13.61 31.75,20.29 58.95,20.29 12.1,0 24.48,-1.43 37.13,-4.53 12.36,-3.11 23.95,-7.17 34.43,-12.17l0 89.73c-38.22,16.21 -73.71,24.33 -106.82,24.33 -26.64,0 -50.06,-3.33 -69.96,-10.03 -19.92,-6.91 -36.6,-16.22 -50.08,-28.15 -13.17,-11.69 -23.11,-25.54 -29.59,-40.81 -6.73,-15.51 -9.94,-31.98 -9.94,-49.63 0,-29.83 9.42,-59.9 28.25,-89.97 19.11,-30.07 45.75,-57.26 80.45,-82.09l103.88 0zm397.73 61.58l137.23 17.18c5.65,37.69 21.8,65.14 48.18,82.56 35.24,23.15 83.41,34.83 144.51,34.83 65.66,0 116.51,-11.68 152.3,-34.83 35.8,-23.15 60.01,-55.84 72.64,-97.59 7.28,-25.54 10.79,-79.23 10.25,-161.08 -62.16,64.9 -139.39,97.35 -231.96,97.35 -115.18,0 -204.53,-36.74 -267.5,-110.47 -63.23,-73.52 -94.72,-161.81 -94.72,-264.66 0,-70.87 14.53,-136.25 43.33,-196.15 28.8,-59.9 70.77,-105.95 125.66,-138.65 54.91,-32.69 119.48,-48.93 193.77,-48.93 98.76,0 180.3,35.81 244.33,107.41l0 -91.64 130.78 0 0 641.68c0,115.74 -13.17,197.59 -39.82,245.78 -26.37,48.22 -68.63,86.38 -125.94,114.32 -57.58,27.92 -128.35,41.99 -212.31,41.99 -99.84,0 -180.31,-19.8 -241.66,-59.66 -61.62,-39.61 -91.23,-99.5 -89.07,-179.44zm116.25 -445.77c0,97.12 21.79,167.99 65.39,212.62 43.85,44.62 98.49,67.05 164.15,67.05 65.38,0 120.02,-22.19 164.41,-66.58 44.14,-44.37 66.21,-114.06 66.21,-209.04 0,-90.67 -22.88,-159.16 -68.36,-205.23 -45.49,-46.04 -100.36,-68.96 -164.42,-68.96 -63.23,0 -116.79,22.68 -161.18,68.02 -44.14,45.33 -66.2,112.62 -66.2,202.12zm754.56 12.65c0,-137.22 43.06,-238.87 129.42,-304.98 71.85,-54.89 159.86,-82.34 263.45,-82.34 114.91,0 209.11,33.42 282.3,100.24 72.92,66.57 109.51,158.92 109.51,276.57 0,95.45 -16.13,170.38 -48.43,225.04 -32.3,54.64 -79.4,97.12 -141.27,127.42 -61.64,30.3 -129.19,45.34 -202.11,45.34 -117.32,0 -212.04,-33.16 -284.42,-99.74 -72.4,-66.58 -108.45,-162.52 -108.45,-287.55zm145.3 0.23c0,94.97 23.42,166.08 70.25,213.1 47.09,47.25 106.01,70.87 177.32,70.87 70.51,0 129.19,-23.62 176.27,-71.11 46.81,-47.49 70.23,-119.8 70.23,-216.92 0,-91.64 -23.69,-161.07 -70.77,-208.09 -47.1,-47.24 -105.76,-70.87 -175.73,-70.87 -71.31,0 -130.23,23.39 -177.32,70.4 -46.83,47.01 -70.25,117.89 -70.25,212.62zm956.92 371.31l-253.48 -743.09 148.53 0 133.75 428.82 47.37 159.64c1.87,-7.88 16.42,-58.93 43.32,-153.19l132.67 -435.27 145.58 0 126.19 431.44 41.18 141.51 48.18 -143.42 144.77 -429.53 138.05 0 -262.92 743.09 -146.93 0 -132.94 -444.57 -33.64 -127.18 -169.53 571.75 -150.15 0zm1562.4 -93.06c-52.75,39.85 -103.61,67.77 -152.32,84.24 -48.7,16.47 -100.89,24.57 -156.88,24.57 -92.03,0 -162.8,-19.8 -212.32,-59.65 -49.51,-39.62 -74.27,-90.45 -74.27,-152.24 0,-36.28 9.42,-69.46 27.99,-99.53 18.84,-30.06 43.31,-53.92 73.46,-72.05 30.4,-18.15 64.31,-31.98 102.26,-41.3 27.99,-6.44 70.23,-12.63 126.48,-18.84 114.63,-11.94 199.41,-26.5 253.49,-43.19 0.52,-17.18 0.79,-28.17 0.79,-32.7 0,-51.06 -13.44,-87.1 -40.34,-108.1 -36.33,-28.39 -90.44,-42.48 -162.01,-42.48 -67,0 -116.52,10.5 -148.26,31.27 -32.05,20.75 -55.43,57.51 -70.79,110.48l-138.85 -17.18c12.65,-52.73 33.38,-95.45 62.43,-127.9 29.07,-32.45 71.04,-57.28 125.94,-74.93 54.62,-17.42 118.41,-26.27 190.53,-26.27 71.57,0 129.96,7.41 174.91,22.45 44.66,15.03 77.77,33.65 98.76,56.31 20.99,22.68 35.78,51.31 44.39,85.91 4.59,21.47 7,60.13 7,115.73l0 167.05c0,116.69 2.96,190.43 8.88,221.69 5.65,31.26 17.5,61.09 34.72,89.72l-148.56 0c-14.24,-26.48 -23.39,-57.51 -27.43,-93.06zm-11.32 -279.2c-51.66,18.61 -129.16,34.37 -232.5,47.25 -58.65,7.39 -100.1,15.75 -124.32,25.05 -24.21,9.32 -42.78,22.91 -55.97,40.57 -13.19,17.89 -19.9,37.71 -19.9,59.66 0,33.16 14.27,61.08 43.03,83.29 28.8,22.18 70.79,33.4 125.97,33.4 54.61,0 103.31,-10.51 146.11,-31.73 42.5,-21 73.99,-49.89 93.93,-86.4 15.32,-28.39 22.86,-70.14 22.86,-125.27l0.79 -45.82zm1351.42 372.26l0 -94.26c-53,73.26 -131.06,110.01 -234.11,110.01 -66.75,0 -128.09,-16.22 -183.79,-48.91 -55.97,-32.47 -99.3,-78.04 -130.25,-136.27 -30.69,-58.46 -46.01,-125.51 -46.01,-201.4 0,-73.97 13.98,-141.02 41.7,-201.41 27.99,-60.14 69.71,-106.42 125.39,-138.4 55.46,-32.22 117.89,-48.22 186.5,-48.22 50.6,0 95.54,9.56 134.83,28.42 39.28,18.85 71.3,43.66 96.05,73.96l0 -368.69 142.09 0 0 1025.17 -132.4 0zm-448.85 -370.6c0,94.99 22.6,165.86 68.07,212.88 45.22,46.99 98.78,70.38 160.38,70.38 62.17,0 114.91,-22.42 158.51,-67.29 43.32,-44.86 65.12,-113.35 65.12,-205.47 0,-101.17 -22.05,-175.63 -66.47,-223.12 -44.12,-47.48 -98.75,-71.11 -163.6,-71.11 -63.23,0 -115.99,22.68 -158.51,68.25 -42.24,45.58 -63.5,117.42 -63.5,215.48zm802.73 370.6l0 -1025.17 142.07 0 0 1025.17 -142.07 0zm909.27 -93.06c-52.75,39.85 -103.6,67.77 -152.32,84.24 -48.7,16.47 -100.89,24.57 -156.88,24.57 -92.03,0 -162.8,-19.8 -212.3,-59.65 -49.53,-39.62 -74.29,-90.45 -74.29,-152.24 0,-36.28 9.43,-69.46 28,-99.53 18.82,-30.06 43.31,-53.92 73.46,-72.05 30.39,-18.15 64.3,-31.98 102.25,-41.3 28,-6.44 70.23,-12.63 126.47,-18.84 114.66,-11.94 199.42,-26.5 253.5,-43.19 0.54,-17.18 0.79,-28.17 0.79,-32.7 0,-51.06 -13.44,-87.1 -40.35,-108.1 -36.32,-28.39 -90.42,-42.48 -161.99,-42.48 -67.01,0 -116.51,10.5 -148.27,31.27 -32.03,20.75 -55.44,57.51 -70.79,110.48l-138.84 -17.18c12.63,-52.73 33.37,-95.45 62.44,-127.9 29.05,-32.45 71.02,-57.28 125.93,-74.93 54.61,-17.42 118.39,-26.27 190.52,-26.27 71.57,0 129.96,7.41 174.91,22.45 44.66,15.03 77.77,33.65 98.76,56.31 20.99,22.68 35.78,51.31 44.41,85.91 4.56,21.47 7,60.13 7,115.73l0 167.05c0,116.69 2.94,190.43 8.86,221.69 5.66,31.26 17.5,61.09 34.72,89.72l-148.55 0c-14.24,-26.48 -23.4,-57.51 -27.44,-93.06zm-11.32 -279.2c-51.64,18.61 -129.15,34.37 -232.49,47.25 -58.66,7.39 -100.09,15.75 -124.31,25.05 -24.23,9.32 -42.8,22.91 -55.98,40.57 -13.19,17.89 -19.9,37.71 -19.9,59.66 0,33.16 14.26,61.08 43.04,83.29 28.8,22.18 70.79,33.4 125.95,33.4 54.62,0 103.33,-10.51 146.11,-31.73 42.51,-21 74,-49.89 93.92,-86.4 15.34,-28.39 22.87,-70.14 22.87,-125.27l0.79 -45.82zm1357.88 100.22l138.86 17.18c-15.34,84.72 -54.09,150.83 -116.79,198.79 -62.71,47.96 -139.94,71.82 -231.16,71.82 -114.35,0 -206.39,-33.16 -275.81,-99.5 -69.71,-66.35 -104.41,-161.32 -104.41,-284.94 0,-80.17 15.07,-150.1 44.93,-210.23 29.88,-59.9 75.34,-105 136.71,-134.82 61.08,-30.08 127.54,-45.12 199.67,-45.12 90.69,0 165.22,20.3 222.8,61.1 57.87,40.81 94.99,98.8 111.14,173.73l-137.25 18.62c-13.18,-49.89 -36.33,-87.35 -69.95,-112.65 -33.36,-25.06 -73.73,-37.69 -121.1,-37.69 -71.58,0 -129.7,22.66 -174.65,68 -44.66,45.57 -66.99,117.17 -66.99,215.49 0,99.75 21.53,172.06 64.57,217.16 43.33,45.1 99.59,67.76 168.74,67.76 55.96,0 102.51,-15.03 139.66,-45.34 37.39,-30.07 61.09,-76.59 71.03,-139.36zm259.97 -609.94l0 -143.19 142.09 0 0 143.19 -142.09 0zm0 881.98l0 -743.09 142.09 0 0 743.09 -142.09 0zm930.27 -240.54l146.92 17.19c-22.88,75.64 -65.65,134.59 -128.08,176.34 -62.44,41.77 -142.1,62.76 -239.24,62.76 -122.16,0 -219.03,-33.4 -290.63,-100.22 -71.58,-66.57 -107.35,-160.36 -107.35,-280.87 0,-124.56 36.05,-221.45 108.43,-290.17 72.38,-68.98 166.3,-103.35 281.75,-103.35 111.68,0 202.9,33.66 273.67,101.2 70.78,67.52 106.31,162.5 106.31,284.91 0,7.41 -0.27,18.62 -0.82,33.42l-624.03 0c5.38,81.38 31.22,143.9 78.03,187.09 46.56,43.19 104.95,64.9 174.64,64.9 51.95,0 96.34,-12.16 132.94,-36.51 36.86,-24.34 65.92,-63.23 87.46,-116.69zm-465 -201.88l466.61 0c-6.19,-62.52 -24.22,-109.29 -53.54,-140.56 -44.95,-48.43 -103.62,-72.77 -175.47,-72.77 -65.12,0 -119.73,19.33 -164.15,57.99 -44.13,38.66 -68.61,90.44 -73.45,155.34zm922.2 442.42l-132.41 0 0 -1025.17 142.09 0 0 365.84c60.01,-66.35 136.43,-99.53 229.55,-99.53 51.39,0 100.36,9.09 146.38,27.45 46.01,18.38 83.69,44.39 113.55,77.55 29.61,33.42 53.02,73.52 69.71,120.53 16.96,46.76 25.3,97.12 25.3,150.57 0,126.95 -35.51,225.27 -106.29,294.47 -71.06,69.44 -156.08,104.04 -255.39,104.04 -98.75,0 -176.26,-36.51 -232.49,-109.3l0 93.55zm-1.62 -377.04c0,88.78 13.73,152.98 40.91,192.58 44.68,64.67 104.95,97.12 181.1,97.12 62.16,0 115.72,-23.86 160.63,-71.58 45.22,-47.73 67.82,-118.84 67.82,-213.34 0,-96.89 -21.51,-168.24 -64.84,-214.29 -43.33,-46.07 -95.8,-69.2 -157.15,-69.2 -62.17,0 -115.71,23.86 -160.66,71.58 -45.2,47.73 -67.81,116.69 -67.81,207.13zm768.82 -504.94l0 -143.19 142.09 0 0 143.19 -142.09 0zm0 881.98l0 -743.09 142.09 0 0 743.09 -142.09 0zm930.27 -240.54l146.94 17.19c-22.9,75.64 -65.67,134.59 -128.1,176.34 -62.44,41.77 -142.09,62.76 -239.24,62.76 -122.16,0 -219.03,-33.4 -290.61,-100.22 -71.6,-66.57 -107.37,-160.36 -107.37,-280.87 0,-124.56 36.05,-221.45 108.43,-290.17 72.38,-68.98 166.3,-103.35 281.75,-103.35 111.68,0 202.92,33.66 273.67,101.2 70.78,67.52 106.31,162.5 106.31,284.91 0,7.41 -0.28,18.62 -0.8,33.42l-624.05 0c5.38,81.38 31.22,143.9 78.03,187.09 46.56,43.19 104.95,64.9 174.64,64.9 51.95,0 96.34,-12.16 132.94,-36.51 36.86,-24.34 65.93,-63.23 87.46,-116.69zm-465 -201.88l466.62 0c-6.2,-62.52 -24.21,-109.29 -53.55,-140.56 -44.95,-48.43 -103.6,-72.77 -175.47,-72.77 -65.13,0 -119.73,19.33 -164.14,57.99 -44.14,38.66 -68.62,90.44 -73.46,155.34z"/>
   <path class="fil1" d="M13981.54 9717.5l0 -2259.49 276.82 0 0 2259.49 -276.82 0zm1589.93 -1373.69l0 -6.92 -881.75 0 0 -224.92 1214.51 0 0 165.53 -892.14 1208.16 0 6.92 950.97 0 0 224.92 -1301.02 0 0 -141.87 909.43 -1231.82zm1704.13 1196.07l-6.34 0c-21.92,27.09 -49.02,54.2 -81.32,80.73 -32.86,25.94 -70.93,49.6 -113.61,70.35 -43.24,21.34 -89.97,37.49 -140.72,49.6 -50.75,12.11 -104.95,18.45 -162.61,18.45 -77.86,0 -149.38,-11.53 -213.96,-34.6 -65.17,-23.06 -121.1,-57.09 -167.82,-101.5 -46.71,-44.4 -83.04,-98.6 -108.99,-162.61 -25.96,-64.03 -39.22,-136.69 -39.22,-217.43 0,-80.15 14.42,-151.67 43.26,-214.53 28.83,-62.85 69.2,-116.48 121.1,-160.31 51.9,-43.84 114.18,-77.86 186.84,-101.5 72.67,-23.64 153.4,-35.18 241.07,-35.18 83.61,1.15 160.89,8.65 232.41,21.92 70.92,13.26 133.78,30.56 189.14,50.75l6.92 0 0 -111.31c0,-44.41 -2.87,-83.05 -8.64,-117.07 -5.19,-33.45 -15,-63.43 -28.26,-89.38 -29.41,-54.21 -76.13,-98.62 -140.71,-134.37 -64.01,-35.17 -150.53,-53.07 -260.09,-53.07 -80.74,0 -157.44,7.51 -228.94,21.92 -71.52,15 -142.46,35.19 -213.39,61.13l0 -217.4c26.54,-13.85 58.82,-25.96 95.16,-38.07 36.9,-11.53 75.54,-21.92 115.91,-29.98 40.37,-8.66 83.05,-15 128.61,-19.04 44.98,-4.6 89.96,-6.92 134.95,-6.92 162.04,0 294.69,28.83 397.91,85.92 103.22,57.69 177.62,133.8 223.17,228.38 16.73,35.75 28.85,75.55 36.34,118.8 7.5,43.24 10.96,91.12 10.96,143.02l0 1070.92 -220.3 0 -28.83 -177.62zm-13.85 -527.69c-48.43,-13.83 -105.52,-26.51 -171.85,-39.2 -66.32,-12.12 -139.56,-19.04 -219.72,-20.19 -111.29,0 -198.38,23.64 -261.24,70.93 -62.86,47.87 -94.58,120.54 -94.58,219.14 0,49.6 8.08,92.86 23.66,130.34 15.55,37.49 37.47,68.05 65.15,92.26 27.11,24.24 59.99,42.69 97.46,54.22 38.07,12.11 77.86,17.87 120.54,17.87 56.52,0 108.99,-8.06 157.43,-24.79 47.87,-16.15 91.11,-35.75 128.6,-58.24 38.07,-22.49 69.78,-44.98 96.31,-68.05 26.53,-22.49 46.13,-39.79 58.24,-52.49l0 -321.8zm1933.09 -103.22c0,-127.44 -15,-230.68 -44.99,-310.27 -29.42,-79.58 -68.05,-141.29 -114.2,-185.68 -46.7,-44.41 -96.88,-75.56 -149.35,-92.28 -53.05,-16.72 -106.12,-25.37 -158.59,-25.37 -81.31,0 -157.44,16.73 -228.94,50.75 -71.52,34.03 -134.38,77.86 -189.74,131.49l0 840.23c15.57,21.34 36.34,44.98 61.7,70.37 25.37,25.36 55.37,49.02 89.97,70.92 35.18,21.92 74.39,40.38 117.65,55.37 43.24,15.57 90.54,23.06 142.44,23.06 77.27,0 145.91,-14.98 204.72,-45.55 59.39,-30.56 108.99,-73.82 148.79,-129.19 39.79,-55.94 69.79,-122.25 89.96,-199.53 20.19,-77.28 30.58,-162.04 30.58,-254.32zm273.34 -21.34c0,149.95 -20.19,279.13 -60.55,388.69 -40.94,109 -94.01,199.54 -160.89,271.05 -66.33,71.52 -142.44,124.57 -227.81,159.17 -85.35,35.17 -174.15,52.47 -265.26,52.47 -68.65,0 -129.19,-8.64 -181.66,-25.94 -51.92,-17.3 -96.9,-38.07 -133.23,-62.28 -36.91,-24.24 -65.75,-48.45 -87.65,-73.24 -21.91,-24.81 -37.49,-44.41 -46.72,-59.41l-5.19 0 -55.35 179.36 -197.81 0 0 -2446.34 262.97 0 0 991.91 5.19 0c57.09,-60.55 123.99,-108.41 200.68,-141.86 76.71,-34.03 163.78,-50.75 261.26,-50.75 44.98,0 93.99,5.19 146.46,15 51.92,10.38 103.82,27.68 155.14,52.47 50.75,24.79 100.35,57.67 147.63,98.04 47.29,40.38 88.82,91.11 124.57,151.09 36.33,59.99 64.58,131.49 85.92,214.54 21.35,82.47 32.3,178.19 32.3,286.03zm1038.62 -592.26c-61.13,0 -117.07,12.11 -169.55,35.75 -51.9,23.64 -97.45,55.37 -136.1,96.31 -38.64,40.37 -70.36,88.24 -94.58,143.02 -23.64,54.21 -38.64,112.45 -44.41,174.74l823.53 0c0,-63.44 -8.08,-122.25 -24.81,-176.47 -16.72,-54.79 -40.94,-102.65 -73.24,-143.01 -31.71,-40.95 -70.92,-72.67 -118.21,-95.74 -46.72,-23.06 -100.92,-34.6 -162.63,-34.6zm136.68 1235.28c86.49,0 165.5,-6.92 237.02,-20.77 71.52,-13.83 143.01,-33.45 213.96,-58.82l0 216.84c-57.69,28.25 -128.61,50.17 -212.81,66.9 -84.78,16.15 -175.32,24.21 -272.2,24.21 -114.76,0 -222.6,-14.41 -323.52,-43.81 -100.93,-29.43 -188,-76.71 -261.82,-141.87 -73.24,-65.17 -130.9,-150.52 -173.01,-256.06 -41.52,-104.95 -62.28,-231.84 -62.28,-380.62 0,-146.48 20.19,-273.35 60.55,-380.61 40.94,-107.84 94.57,-197.23 162.04,-269.32 67.48,-72.08 145.34,-126.3 233,-162.05 87.65,-36.34 179.34,-54.21 275.07,-54.21 89.97,0 174.17,15 252.03,44.98 78.41,29.98 146.46,76.71 203.57,141.29 57.67,64.01 102.65,147.06 136.1,248.56 32.86,101.5 49.58,223.17 49.58,365.04 0,13.27 0,24.81 0,34.61 0,9.8 -0.57,31.14 -1.72,65.16l-1110.13 0c0,102.08 15,188.58 46.13,260.09 31.15,70.93 73.24,129.18 126.88,173.59 53.63,43.82 115.91,76.12 188,96.31 72.09,20.17 149.93,30.56 233.56,30.56zm977.5 186.85l0 -2446.34 262.96 0 0 2446.34 -262.96 0zm1726.62 -177.62l-6.34 0c-21.92,27.09 -49.03,54.2 -81.33,80.73 -32.86,25.94 -70.92,49.6 -113.61,70.35 -43.24,21.34 -89.96,37.49 -140.71,49.6 -50.75,12.11 -104.95,18.45 -162.62,18.45 -77.86,0 -149.37,-11.53 -213.95,-34.6 -65.18,-23.06 -121.1,-57.09 -167.83,-101.5 -46.71,-44.4 -83.03,-98.6 -108.99,-162.61 -25.96,-64.03 -39.22,-136.69 -39.22,-217.43 0,-80.15 14.43,-151.67 43.26,-214.53 28.84,-62.85 69.2,-116.48 121.1,-160.31 51.9,-43.84 114.18,-77.86 186.85,-101.5 72.67,-23.64 153.4,-35.18 241.07,-35.18 83.6,1.15 160.89,8.65 232.4,21.92 70.93,13.26 133.78,30.56 189.15,50.75l6.92 0 0 -111.31c0,-44.41 -2.88,-83.05 -8.64,-117.07 -5.2,-33.45 -15,-63.43 -28.26,-89.38 -29.41,-54.21 -76.14,-98.62 -140.72,-134.37 -64.01,-35.17 -150.52,-53.07 -260.09,-53.07 -80.73,0 -157.44,7.51 -228.94,21.92 -71.51,15 -142.46,35.19 -213.38,61.13l0 -217.4c26.53,-13.85 58.82,-25.96 95.16,-38.07 36.9,-11.53 75.54,-21.92 115.91,-29.98 40.36,-8.66 83.04,-15 128.6,-19.04 44.99,-4.6 89.97,-6.92 134.95,-6.92 162.04,0 294.69,28.83 397.92,85.92 103.22,57.69 177.61,133.8 223.17,228.38 16.72,35.75 28.85,75.55 36.34,118.8 7.49,43.24 10.96,91.12 10.96,143.02l0 1070.92 -220.3 0 -28.83 -177.62zm-13.85 -527.69c-48.44,-13.83 -105.53,-26.51 -171.85,-39.2 -66.33,-12.12 -139.57,-19.04 -219.73,-20.19 -111.29,0 -198.38,23.64 -261.23,70.93 -62.86,47.87 -94.59,120.54 -94.59,219.14 0,49.6 8.09,92.86 23.66,130.34 15.56,37.49 37.48,68.05 65.16,92.26 27.11,24.24 59.98,42.69 97.46,54.22 38.06,12.11 77.85,17.87 120.54,17.87 56.51,0 108.99,-8.06 157.42,-24.79 47.88,-16.15 91.12,-35.75 128.61,-58.24 38.06,-22.49 69.77,-44.98 96.31,-68.05 26.53,-22.49 46.13,-39.79 58.24,-52.49l0 -321.8zm-9075.39 2727.65l0 934.24 -276.82 0 0 -2259.48 586.49 0c99.2,0 183.4,3.46 252.6,10.96 69.2,7.49 132.63,19.02 189.72,34.6 158.02,42.68 278.56,115.92 361.59,219.14 83.63,102.65 125.14,231.84 125.14,385.81 0,91.69 -14.41,173 -43.81,245.09 -29.43,72.09 -70.37,134.95 -123.42,188 -53.07,53.06 -116.5,96.31 -190.32,129.75 -73.81,34.03 -155.69,58.84 -245.66,74.4l0 6.93 668.96 964.8 -276.81 0 -695.5 -934.24 -332.16 0zm0 -1076.11l0 826.98 272.2 0c84.2,0 156.27,-2.88 216.25,-8.65 59.39,-5.19 113.03,-15.57 160.32,-30 95.73,-29.4 169.55,-76.11 221.45,-140.14 51.9,-64 77.85,-148.2 77.85,-251.43 -1.15,-96.88 -25.95,-174.74 -74.39,-234.13 -48.45,-58.83 -115.33,-101.5 -201.27,-127.46 -40.37,-12.1 -88.8,-21.34 -145.32,-26.51 -55.94,-5.77 -127.45,-8.66 -214.53,-8.66l-312.56 0zm2828.09 1209.33c0,-99.2 -12.11,-187.44 -36.32,-264.7 -24.22,-77.29 -58.24,-143.02 -101.5,-196.66 -43.83,-53.63 -95.16,-94.01 -155.12,-121.68 -59.99,-27.68 -125.74,-41.53 -196.66,-41.53 -70.94,0 -136.68,13.85 -196.66,41.53 -59.96,27.67 -111.31,68.05 -155.12,121.68 -43.26,53.64 -77.29,119.37 -101.5,196.66 -24.22,77.26 -36.34,165.5 -36.34,264.7 0,98.03 12.12,185.68 36.34,262.97 24.21,77.28 58.24,142.44 102.65,195.5 43.83,53.05 95.73,93.42 155.7,121.1 59.98,27.69 125.73,41.52 196.65,41.52 70.94,0 136.1,-13.83 195.51,-41.52 59.39,-27.68 110.72,-68.05 154.55,-121.1 43.26,-53.06 77.28,-118.22 101.5,-195.5 24.21,-77.29 36.32,-164.94 36.32,-262.97zm273.37 0c0,126.29 -17.89,241.05 -54.22,344.27 -35.75,103.82 -87.07,192.62 -152.82,265.86 -66.33,73.82 -145.91,130.91 -239.33,171.87 -94,40.36 -198.95,60.54 -314.88,60.54 -119.37,0 -226.64,-20.18 -320.63,-60.54 -94.01,-40.96 -174.16,-98.05 -240.49,-171.87 -65.75,-73.24 -115.9,-162.04 -151.1,-265.86 -35.17,-103.22 -52.47,-217.98 -52.47,-344.27 0,-127.46 17.87,-242.79 54.22,-346.03 35.75,-103.8 87.07,-192.61 152.82,-267.01 66.31,-74.39 146.48,-131.48 240.47,-172.42 94.01,-40.37 199.53,-60.56 315.46,-60.56 118.22,0 224.91,20.19 319.48,60.56 95.16,40.94 175.31,98.03 240.49,172.42 65.16,74.4 115.33,163.21 150.51,267.01 35.17,103.24 52.49,218.57 52.49,346.03zm1727.19 801.02l-262.98 0 0 -1032.28c0,-69.79 -7.49,-128.6 -23.07,-177.63 -14.98,-49.01 -36.89,-89.37 -65.73,-121.1 -28.83,-31.72 -63.45,-54.79 -103.24,-69.2 -40.37,-14.42 -84.77,-21.91 -134.93,-21.91 -93.43,0 -178.78,24.79 -255.49,74.96 -76.69,50.18 -145.32,118.8 -206.45,206.47l0 1140.69 -262.96 0 0 -1605.52 203.57 0 50.75 223.19 5.17 0c29.43,-37.49 61.14,-71.52 95.74,-103.8 34.02,-31.72 72.66,-59.98 114.77,-84.2 42.67,-24.23 89.38,-43.26 140.12,-56.52 50.75,-13.27 106.12,-20.19 166.1,-20.19 119.38,0 219.14,28.84 298.14,85.93 79.01,57.68 140.14,135.52 182.83,234.72l6.91 0c70.93,-100.35 152.25,-178.78 243.37,-235.3 91.11,-57.09 197.23,-85.35 318.9,-85.35 56.52,0 115.93,8.09 178.79,23.64 63.43,15.58 121.09,44.99 174.14,87.1 53.07,42.09 96.9,100.33 131.5,174.74 35.18,74.39 52.48,170.12 52.48,287.18l0 1074.38 -262.98 0 0 -1032.28c0,-69.79 -7.49,-128.6 -22.48,-177.63 -15.57,-49.01 -37.49,-89.37 -65.75,-121.1 -28.83,-31.72 -62.86,-54.79 -102.65,-69.2 -39.79,-14.42 -84.2,-21.91 -133.8,-21.91 -92.84,0 -178.19,24.79 -254.89,74.96 -76.69,50.18 -145.34,118.8 -205.88,206.47l0 1140.69zm2493.62 -177.61l-6.34 0c-21.92,27.09 -49.03,54.19 -81.33,80.73 -32.86,25.94 -70.92,49.6 -113.61,70.35 -43.24,21.34 -89.96,37.49 -140.71,49.6 -50.75,12.11 -104.95,18.45 -162.62,18.45 -77.86,0 -149.37,-11.54 -213.95,-34.6 -65.18,-23.07 -121.1,-57.09 -167.83,-101.5 -46.71,-44.41 -83.03,-98.61 -108.99,-162.62 -25.96,-64.02 -39.22,-136.69 -39.22,-217.42 0,-80.16 14.43,-151.68 43.26,-214.53 28.84,-62.86 69.2,-116.49 121.1,-160.32 51.9,-43.83 114.18,-77.86 186.85,-101.5 72.67,-23.64 153.4,-35.17 241.07,-35.17 83.6,1.15 160.89,8.64 232.4,21.91 70.93,13.26 133.78,30.56 189.15,50.75l6.92 0 0 -111.3c0,-44.41 -2.88,-83.05 -8.64,-117.08 -5.2,-33.45 -15,-63.43 -28.26,-89.37 -29.41,-54.22 -76.14,-98.63 -140.72,-134.38 -64.01,-35.17 -150.52,-53.06 -260.09,-53.06 -80.73,0 -157.44,7.51 -228.94,21.91 -71.51,15 -142.46,35.2 -213.38,61.14l0 -217.41c26.53,-13.85 58.82,-25.96 95.16,-38.07 36.9,-11.53 75.54,-21.91 115.91,-29.98 40.36,-8.66 83.05,-15 128.6,-19.04 44.99,-4.6 89.97,-6.92 134.95,-6.92 162.04,0 294.69,28.84 397.92,85.93 103.22,57.68 177.61,133.8 223.17,228.38 16.72,35.75 28.85,75.54 36.34,118.8 7.49,43.24 10.96,91.11 10.96,143.01l0 1070.92 -220.3 0 -28.83 -177.61zm-13.85 -527.69c-48.44,-13.84 -105.53,-26.52 -171.85,-39.2 -66.33,-12.13 -139.57,-19.04 -219.72,-20.19 -111.3,0 -198.39,23.64 -261.24,70.92 -62.86,47.88 -94.59,120.54 -94.59,219.15 0,49.6 8.09,92.86 23.66,130.33 15.56,37.49 37.48,68.05 65.16,92.27 27.11,24.23 59.98,42.68 97.46,54.21 38.06,12.11 77.85,17.88 120.54,17.88 56.51,0 108.99,-8.07 157.42,-24.79 47.88,-16.15 91.12,-35.75 128.61,-58.24 38.06,-22.5 69.77,-44.99 96.31,-68.05 26.53,-22.5 46.13,-39.8 58.24,-52.5l0 -321.79zm1020.74 -677.03l4.62 0c29.4,-37.49 61.7,-71.52 97.45,-103.8 35.2,-31.72 74.99,-59.98 119.39,-84.2 43.82,-24.23 91.7,-43.26 144.17,-56.52 52.47,-13.27 109.57,-20.19 171.85,-20.19 73.24,0 141.86,10.39 205.89,30.58 64.58,20.17 119.95,53.05 167.23,98.03 47.3,44.98 84.78,103.8 112.46,176.47 27.68,72.66 41.51,161.48 41.51,267.58l0 1074.38 -262.96 0 0 -1032.28c0,-138.41 -26.53,-237.59 -80.16,-298.73 -53.06,-60.55 -130.9,-91.11 -233.55,-91.11 -89.97,0 -177.06,24.79 -261.26,74.96 -84.18,50.18 -156.85,118.8 -217.41,206.47l0 1140.69 -262.96 0 0 -1605.52 202.98 0 50.75 223.19zm843.13 -1105.52l-271.63 588.23 -219.7 0 207.6 -588.23 283.73 0zm914.64 1310.24c0,43.84 9.22,80.16 28.26,107.84 18.45,28.26 43.81,51.33 75.54,68.63 31.13,17.3 67.47,31.72 108.99,43.26 41.53,10.95 84.2,21.34 128.61,29.98 60.55,13.85 118.22,28.83 171.85,44.98 54.21,16.15 104.39,40.94 149.94,73.24 46.14,32.88 83.04,77.29 111.3,132.64 28.25,55.94 42.1,128.03 42.1,216.84 0,81.31 -15.57,152.83 -47.3,215.69 -31.7,62.28 -76.11,114.75 -133.78,156.86 -57.66,42.09 -126.29,74.39 -206.46,96.31 -80.16,21.9 -168.39,32.86 -264.12,32.86 -58.83,0 -111.88,-2.88 -159.74,-9.22 -48.45,-6.34 -90.54,-13.85 -127.46,-23.64 -36.32,-9.23 -67.47,-19.04 -93.41,-28.85 -25.96,-10.37 -47.88,-19.6 -64.6,-28.83l0 -217.41c66.32,26.53 132.65,47.86 197.81,63.43 65.74,15.58 137.82,23.07 216.25,23.07 62.28,0 118.23,-5.77 168.4,-16.73 49.6,-11.53 92.84,-28.25 128.61,-50.17 36.32,-22.49 64.01,-50.16 83.61,-83.61 19.04,-32.87 28.85,-72.09 28.85,-115.92 0,-44.99 -8.66,-82.46 -26.54,-111.29 -17.87,-29.43 -41.51,-53.65 -71.51,-72.67 -29.99,-19.62 -64.59,-35.19 -103.8,-47.3 -39.79,-12.68 -80.74,-23.64 -123.99,-34.02 -56.52,-12.11 -114.19,-27.1 -172.43,-43.82 -58.26,-16.73 -110.73,-40.38 -158.59,-70.94 -47.87,-30.56 -86.51,-71.52 -115.92,-123.99 -29.41,-52.48 -43.84,-119.95 -43.84,-201.83 0,-84.2 15,-157.44 45.56,-219.73 30.58,-61.71 72.09,-113.03 123.99,-153.4 51.9,-40.36 111.89,-70.94 181.09,-91.11 68.62,-20.19 141.29,-30.58 217.99,-30.58 89.39,0 171.85,8.09 247.99,24.81 76.69,16.71 145.31,38.05 207.59,63.43l0 219.73c-66.32,-24.81 -133.2,-45.56 -200.68,-61.14 -68.05,-16.15 -137.84,-24.23 -209.34,-25.38 -60.56,0 -112.46,6.34 -155.71,18.47 -42.67,12.68 -78.44,29.98 -105.53,51.9 -27.68,21.91 -47.87,48.43 -60.56,78.43 -12.68,29.98 -19.02,62.86 -19.02,99.18zm2252.55 -427.91l341.41 0 -783.73 738.75 781.99 866.77 -325.82 0 -770.46 -854.66 -3.47 0 0 854.66 -262.96 0 0 -2446.33 262.96 0 0 1557.65 3.47 0 756.61 -716.84zm1585.33 1427.91l-6.34 0c-21.92,27.09 -49.03,54.19 -81.33,80.73 -32.86,25.94 -70.92,49.6 -113.61,70.35 -43.24,21.34 -89.96,37.49 -140.71,49.6 -50.75,12.11 -104.95,18.45 -162.62,18.45 -77.85,0 -149.37,-11.54 -213.95,-34.6 -65.18,-23.07 -121.1,-57.09 -167.83,-101.5 -46.7,-44.41 -83.03,-98.61 -108.99,-162.62 -25.96,-64.02 -39.21,-136.69 -39.21,-217.42 0,-80.16 14.42,-151.68 43.25,-214.53 28.84,-62.86 69.2,-116.49 121.1,-160.32 51.9,-43.83 114.19,-77.86 186.85,-101.5 72.67,-23.64 153.4,-35.17 241.07,-35.17 83.6,1.15 160.89,8.64 232.4,21.91 70.93,13.26 133.79,30.56 189.15,50.75l6.92 0 0 -111.3c0,-44.41 -2.88,-83.05 -8.64,-117.08 -5.19,-33.45 -15,-63.43 -28.26,-89.37 -29.41,-54.22 -76.13,-98.63 -140.72,-134.38 -64,-35.17 -150.52,-53.06 -260.09,-53.06 -80.73,0 -157.44,7.51 -228.94,21.91 -71.51,15 -142.45,35.2 -213.38,61.14l0 -217.41c26.54,-13.85 58.82,-25.96 95.16,-38.07 36.9,-11.53 75.54,-21.91 115.91,-29.98 40.36,-8.66 83.05,-15 128.6,-19.04 44.99,-4.6 89.97,-6.92 134.95,-6.92 162.04,0 294.69,28.84 397.92,85.93 103.22,57.68 177.61,133.8 223.17,228.38 16.73,35.75 28.85,75.54 36.34,118.8 7.49,43.24 10.96,91.11 10.96,143.01l0 1070.92 -220.3 0 -28.83 -177.61zm-13.85 -527.69c-48.43,-13.84 -105.53,-26.52 -171.85,-39.2 -66.32,-12.13 -139.57,-19.04 -219.72,-20.19 -111.29,0 -198.39,23.64 -261.24,70.92 -62.86,47.88 -94.59,120.54 -94.59,219.15 0,49.6 8.09,92.86 23.66,130.33 15.56,37.49 37.48,68.05 65.16,92.27 27.11,24.23 59.98,42.68 97.46,54.21 38.06,12.11 77.86,17.88 120.54,17.88 56.51,0 108.99,-8.07 157.42,-24.79 47.88,-16.15 91.12,-35.75 128.61,-58.24 38.07,-22.5 69.77,-44.99 96.31,-68.05 26.53,-22.5 46.13,-39.8 58.24,-52.5l0 -321.79z"/>
  </g>
 </g>
</svg>
